<?xml version="1.0" encoding="UTF-8" standalone="no"?>
<svg
   xmlns:dc="http://purl.org/dc/elements/1.1/"
   xmlns:cc="http://creativecommons.org/ns#"
   xmlns:rdf="http://www.w3.org/1999/02/22-rdf-syntax-ns#"
   xmlns:svg="http://www.w3.org/2000/svg"
   xmlns="http://www.w3.org/2000/svg"
   xmlns:sodipodi="http://sodipodi.sourceforge.net/DTD/sodipodi-0.dtd"
   xmlns:inkscape="http://www.inkscape.org/namespaces/inkscape"
   viewBox="0 0 451.51599 512"
   version="1.1"
   id="svg14"
   sodipodi:docname="html5_icon.svg"
   width="451.51599"
   height="512"
   inkscape:version="1.0.1 (3bc2e813f5, 2020-09-07)">
  <metadata
     id="metadata20">
    <rdf:RDF>
      <cc:Work
         rdf:about="">
        <dc:format>image/svg+xml</dc:format>
        <dc:type
           rdf:resource="http://purl.org/dc/dcmitype/StillImage" />
        <dc:title>HTML5 Logo</dc:title>
      </cc:Work>
    </rdf:RDF>
  </metadata>
  <defs
     id="defs18" />
  <sodipodi:namedview
     pagecolor="#ffffff"
     bordercolor="#666666"
     borderopacity="1"
     objecttolerance="10"
     gridtolerance="10"
     guidetolerance="10"
     inkscape:pageopacity="0"
     inkscape:pageshadow="2"
     inkscape:window-width="1366"
     inkscape:window-height="705"
     id="namedview16"
     showgrid="false"
     inkscape:zoom="0.74301455"
     inkscape:cx="216.18622"
     inkscape:cy="333.26238"
     inkscape:window-x="-8"
     inkscape:window-y="-8"
     inkscape:window-maximized="1"
     inkscape:current-layer="svg14" />
  <title
     id="title2">HTML5 Logo</title>
  <g
     id="g862"
     transform="matrix(1.2445309,0,0,1.2445309,-92.842005,-125.19981)">
    <path
       fill="#e44d26"
       d="M 107.6,471 74.6,100.6 H 437.4 L 404.4,470.8 255.7,512"
       id="path6" />
    <path
       fill="#f16529"
       d="M 256,480.5 V 131 H 404.3 L 376,447"
       id="path8" />
    <path
       fill="#ebebeb"
       d="m 142,176.3 h 114 v 45.4 h -64.2 l 4.2,46.5 h 60 v 45.3 H 154.4 m 2,22.8 H 202 l 3.2,36.3 50.8,13.6 v 47.4 l -93.2,-26"
       id="path10" />
    <path
       fill="#ffffff"
       d="M 369.6,176.3 H 255.8 v 45.4 h 109.6 m -4.1,46.5 H 255.8 v 45.4 h 56 l -5.3,59 -50.7,13.6 v 47.2 l 93,-25.8"
       id="path12" />
  </g>
</svg>
